<svg width="225" height="158" viewBox="0 0 225 158" fill="none" xmlns="http://www.w3.org/2000/svg">
<g clip-path="url(#clip0_38_515)">
<path fill-rule="evenodd" clip-rule="evenodd" d="M112.314 62.8464L112.722 61.5963H115.192L115.627 62.8464H112.314ZM107.785 58.1913H104.125V58.0209C104.125 56.9995 105.317 56.5454 105.827 56.5454C106.337 56.5454 106.678 56.6014 107.245 57.1127C107.547 57.3847 107.706 57.8318 107.785 58.1913Z" fill="black"/>
<path fill-rule="evenodd" clip-rule="evenodd" d="M102.494 58.1911H94.9325C89.8256 58.1911 90.1665 54.7861 90.1665 54.7861H130.795C130.795 54.7861 130.455 58.1911 126.484 58.1911H115.458L114.594 56.2336C114.594 56.2336 114.537 56.0631 114.396 56.0631C114.254 56.0631 114.17 56.2616 114.17 56.2616L113.479 58.1934L113.475 58.1911H108.269V56.2055C108.269 55.7515 107.815 56.1483 107.815 56.1483L107.474 56.6024C107.474 56.6024 106.51 56.0911 105.828 56.0911C105.3 56.0911 103.343 56.2954 102.487 58.1817L102.494 58.1911ZM102.139 59.4401H95.1601C95.1601 59.4401 94.8192 62.845 99.9261 62.845H102.551L102.531 62.8473C102.251 62.2042 102.083 61.3696 102.083 60.2922C102.083 59.9864 102.103 59.7039 102.138 59.4412H102.139V59.4401ZM112.311 62.845H115.632H112.311ZM117.531 62.845H121.377C125.348 62.845 125.688 59.4401 125.688 59.4401H116.015L116.01 59.4412L117.512 62.8462L117.531 62.845ZM113.516 59.4401H114.312L114.307 59.4424L115.02 61.2272H112.892L113.518 59.4401H113.516ZM113.033 59.4401H104.125V62.5614C104.125 62.5614 104.132 62.6793 104.169 62.8532L104.168 62.845H107.303V61.6532H106.339V61.1992H110.141V61.5972H109.12V62.845H111.815L111.818 62.8462L113.033 59.4447V59.4401ZM104.892 64.0917H106.92L106.931 64.0893C106.92 64.0917 106.678 64.5866 105.941 64.5866C105.148 64.5866 104.877 64.094 104.877 64.094L104.892 64.0917Z" fill="black"/>
<path fill-rule="evenodd" clip-rule="evenodd" d="M108.425 64.0915L108.836 64.6996H109.12V64.0915H111.376H111.375L111.257 64.3961H110.69V64.709H112.704V64.3973H111.797L111.911 64.095L111.916 64.0915H116.058L116.063 64.0961L116.179 64.3599H115.299V64.7008H118.959V64.3599H118.193L118.068 64.0961L118.061 64.0926H120.585C120.585 64.0926 120.245 67.4976 116.274 67.4976H106.059C100.952 67.4976 101.293 64.0926 101.293 64.0926H103.45L103.448 64.0961C104.189 64.7148 105.122 65.0416 105.947 65.0416C107.276 65.0416 107.984 64.3354 108.229 64.0926L108.23 64.0938H108.425V64.0915ZM93.5715 40.7144H74.7316C74.7316 40.7144 74.7316 44.2325 79.8384 44.2325H97.2017L93.5715 40.7144ZM127.844 40.7144H143.507C143.507 40.7144 145.322 40.8276 145.322 42.4163C145.322 44.0049 143.733 44.2325 143.733 44.2325H124.213L127.844 40.7144ZM98.4507 45.4804H78.7038C78.7038 45.4804 78.363 48.8853 83.4698 48.8853H102.082L98.4507 45.4804ZM115.02 48.8853H105.941L106.282 45.4804H113.317L115.02 48.8853ZM119.787 48.8853H137.265C141.236 48.8853 141.576 45.4804 141.576 45.4804H123.077L119.787 48.8853ZM103.218 50.132H83.9251C83.9251 50.132 83.5842 53.5369 88.6911 53.5369H132.158C136.129 53.5369 136.469 50.132 136.469 50.132H118.538L116.496 51.9494L115.36 50.132H105.941L105.487 52.1759L103.218 50.132ZM113.999 44.459H106.395C106.395 44.459 105.828 41.2817 109.574 41.2817H114.228C114.228 41.2817 116.043 41.3949 116.838 42.303C117.631 43.2112 117.859 43.8917 117.859 43.8917H115.249C115.248 43.8917 114.906 44.459 113.999 44.459C114.906 44.459 113.999 44.459 113.999 44.459ZM3.30811 99.5208V98.7025H5.75122L12.958 77.165H13.9829L20.8885 98.7025H23.3013V99.5208H13.7412V98.7025H16.8789L15.0393 92.9093H8.52584L6.65586 98.7025H9.73164V99.5208H3.30811ZM8.85735 92.091H14.7381L11.9028 82.9582L8.85735 92.091ZM31.5644 98.7025H34.5492V99.5208H24.7183V98.7025H27.7042V78.4735H24.7183V77.6553H34.8211C38.1082 77.6553 42.0279 78.0813 42.0279 82.6326C42.0279 86.3305 38.4397 87.6075 35.6347 87.9355V87.9997C40.3389 88.7865 41.3941 91.5354 41.3941 96.871C41.3941 98.0173 41.4851 99.327 44.38 98.7387V99.5231C43.536 99.753 42.6921 99.9153 41.8166 99.9153C38.7712 99.9153 37.1732 98.2461 37.1732 94.9088C37.1732 92.1914 36.7507 90.1627 35.9662 89.4413C35.1223 88.6546 34.157 88.2623 33.222 88.2623H31.5644V98.7025ZM31.5644 87.4429H34.0367C36.7507 87.4429 37.8666 86.0363 37.8666 83.0901C37.8666 79.4237 36.8709 78.4735 34.1885 78.4735H31.5644V87.4429ZM119.806 78.4735V77.6553H103.251V78.4735H106.145V91.9615L97.2204 77.6553H89.5V78.4735H92.4556V98.7025H87.2156L80.31 77.165H79.2851L72.0784 98.7025H66.6949V78.4735H69.6808V77.6553H62.0514L57.6788 92.6151L53.4568 77.6553H45.6768V78.4735H48.6627V98.7025H45.6768V99.5208H52.5521V98.7025H49.6269V79.0292H49.6876L55.6886 99.5208H56.7146L62.746 79.0292H62.837V98.7025H59.8511V99.5208H76.06V98.7025H72.9842L74.8541 92.9093H81.3676L83.2072 98.7025H80.0707V99.5208H96.3776V98.7025H93.4221V79.1272L106.208 99.9468H107.113V78.4735H112.963V98.7025H109.979V99.5208H119.808V98.7025H116.824V78.4735H119.806ZM75.1821 92.091L78.2276 82.9582L81.0617 92.091H75.1821ZM135.589 98.7795C135.892 99.3655 136.275 99.4659 136.637 99.4659C138.265 99.4659 138.627 97.9928 138.627 96.5209V78.4735H135.399V77.6553H145.411V78.4735H142.486V91.9615C142.486 93.8583 142.696 94.8201 141.974 96.4893C140.977 98.7807 139.019 100.285 136.604 100.285C135.49 100.285 134.885 100.156 133.892 99.6305C133.078 99.2068 132.385 97.6718 132.385 96.724L135.659 96.717C135.66 96.717 135.409 98.4294 135.589 98.7795C135.409 98.4294 135.589 98.7795 135.589 98.7795ZM154.37 78.4735V87.869C157.265 87.869 159.767 83.8745 159.767 83.8745L159.781 93.0073C159.51 89.3736 157.628 88.5892 154.37 88.6872V98.7025H158.654C162.573 98.7025 164.661 92.4832 164.661 92.4832L164.654 99.5208H147.496V98.7025H150.51V78.4735H147.496V77.6553H164.171L164.192 83.5489C163.558 80.4054 161.73 79.1949 160.19 78.7362C159.438 78.5086 158.562 78.4735 157.569 78.4735H154.37ZM200.351 77.6553V78.4735H203.246V91.9615L194.32 77.6553H186.599V78.4735H189.556V98.7025H184.226L177.32 77.165H176.294L169.087 98.7025H166.645V99.5208H173.068V98.7025H169.992L171.862 92.9093H178.375L180.215 98.7025H177.077V99.5208H193.473V98.7025H190.519V79.1272L203.304 99.9468H204.209V78.4735H207.225V77.6553H200.351ZM172.192 92.091L175.238 82.9582L178.074 92.091H172.192ZM209.105 99.7169L209.117 93.2034C209.751 96.3131 212.343 99.1951 215.539 99.1951C217.922 99.1951 220.033 97.2959 220.033 94.6124C220.033 91.5669 217.53 90.9786 215.268 90.1277C214.671 89.8946 214.068 89.6758 213.46 89.4716C210.657 88.5553 209.268 86.264 209.268 83.1543C209.268 79.719 211.627 77.3775 214.755 77.165C217.192 76.9981 218.211 78.7245 219.007 78.4852C219.801 78.2483 220.845 77.4907 220.845 77.4907L220.847 83.6784C219.677 80.0494 217.682 77.9833 214.666 77.9833C212.735 77.9833 210.927 79.5218 210.927 81.7151C210.927 84.2341 212.525 84.4967 214.395 85.0523C215.148 85.2823 215.752 85.5111 216.265 85.6745C216.868 85.8706 217.622 86.1005 218.256 86.4274C220.789 87.7359 221.693 89.8977 221.693 92.8428C221.693 96.9668 219.22 100.013 215.33 100.013C213.912 100.013 211.995 98.5776 211.039 98.6616C210.083 98.7457 209.105 99.7169 209.105 99.7169Z" fill="black"/>
</g>
<defs>
<clipPath id="clip0_38_515">
<rect width="225" height="225" fill="white" transform="translate(0 -42)"/>
</clipPath>
</defs>
</svg>
