<svg width="56" height="56" viewBox="0 0 56 56" fill="none" xmlns="http://www.w3.org/2000/svg">
<path d="M48.3311 11.9926C48.0081 11.5319 47.579 11.1557 47.0799 10.8958C46.5808 10.636 46.0265 10.5002 45.4638 10.5H5.25C4.32206 10.501 3.43243 10.8701 2.77628 11.5263C2.12013 12.1824 1.75104 13.0721 1.75 14V41.125H6.24334C6.55083 42.8425 7.45247 44.3971 8.79051 45.5168C10.1285 46.6366 11.8177 47.2502 13.5625 47.2502C15.3073 47.2502 16.9965 46.6366 18.3345 45.5168C19.6725 44.3971 20.5742 42.8425 20.8817 41.125H34.2433C34.5508 42.8425 35.4525 44.3971 36.7905 45.5168C38.1285 46.6366 39.8177 47.2502 41.5625 47.2502C43.3073 47.2502 44.9965 46.6366 46.3345 45.5168C47.6725 44.3971 48.5742 42.8425 48.8817 41.125H54.25V21.2757C54.2508 20.737 54.0851 20.2113 53.7755 19.7704L48.3311 11.9926ZM19.6875 14H35.4375V24.5H19.6875V14ZM5.25 14H16.1875V24.5H5.25V14ZM13.5625 43.75C12.7837 43.75 12.0225 43.5191 11.3749 43.0864C10.7274 42.6538 10.2227 42.0388 9.92472 41.3193C9.6267 40.5998 9.54873 39.8081 9.70066 39.0443C9.85259 38.2805 10.2276 37.5789 10.7783 37.0283C11.3289 36.4776 12.0305 36.1026 12.7943 35.9507C13.5581 35.7987 14.3498 35.8767 15.0693 36.1747C15.7888 36.4727 16.4038 36.9774 16.8364 37.6249C17.2691 38.2725 17.5 39.0337 17.5 39.8125C17.4988 40.8564 17.0836 41.8573 16.3455 42.5955C15.6073 43.3336 14.6064 43.7488 13.5625 43.75ZM41.5625 43.75C40.7837 43.75 40.0225 43.5191 39.3749 43.0864C38.7274 42.6538 38.2227 42.0388 37.9247 41.3193C37.6267 40.5998 37.5487 39.8081 37.7007 39.0443C37.8526 38.2805 38.2276 37.5789 38.7783 37.0283C39.3289 36.4776 40.0305 36.1026 40.7943 35.9507C41.5581 35.7987 42.3498 35.8767 43.0693 36.1747C43.7888 36.4727 44.4038 36.9774 44.8364 37.6249C45.2691 38.2725 45.5 39.0337 45.5 39.8125C45.4988 40.8564 45.0836 41.8573 44.3455 42.5955C43.6073 43.3336 42.6064 43.7488 41.5625 43.75ZM50.75 37.625H48.6712C48.2035 36.1047 47.2607 34.7744 45.9813 33.8294C44.7018 32.8843 43.1531 32.3744 41.5625 32.3744C39.9719 32.3744 38.4232 32.8843 37.1437 33.8294C35.8643 34.7744 34.9215 36.1047 34.4538 37.625H20.6712C20.2035 36.1047 19.2607 34.7744 17.9813 33.8294C16.7018 32.8843 15.1531 32.3744 13.5625 32.3744C11.9719 32.3744 10.4232 32.8843 9.14371 33.8294C7.86426 34.7744 6.92148 36.1047 6.45378 37.625H5.25V28H50.75V37.625ZM50.75 24.5H38.9375V14H45.4638L50.75 21.5516V24.5Z" fill="#D34570"/>
</svg>
