<svg width="93" height="52" viewBox="0 0 93 52" fill="none" xmlns="http://www.w3.org/2000/svg">
<path d="M0 22.1348C0 18.8058 0.691191 15.8449 2.07357 13.2521C3.4881 10.6273 5.4813 8.59464 8.05318 7.1542C10.6251 5.68175 13.5827 4.94552 16.9261 4.94552C21.1697 4.94552 24.7382 6.08187 27.6316 8.35457C30.5249 10.5953 32.3895 13.6522 33.2254 17.5254H23.0504C22.4396 16.245 21.5877 15.2687 20.4946 14.5965C19.4337 13.9243 18.196 13.5882 16.7815 13.5882C14.5954 13.5882 12.8433 14.3724 11.5252 15.9409C10.2393 17.4774 9.5963 19.542 9.5963 22.1348C9.5963 24.7596 10.2393 26.8563 11.5252 28.4247C12.8433 29.9612 14.5954 30.7295 16.7815 30.7295C18.196 30.7295 19.4337 30.3934 20.4946 29.7211C21.5877 29.0489 22.4396 28.0726 23.0504 26.7922H33.2254C32.3895 30.6654 30.5249 33.7384 27.6316 36.0111C24.7382 38.2518 21.1697 39.3721 16.9261 39.3721C13.5827 39.3721 10.6251 38.6519 8.05318 37.2114C5.4813 35.739 3.4881 33.7064 2.07357 31.1136C0.691191 28.4888 0 25.4958 0 22.1348Z" fill="#D34570"/>
<path d="M44.1076 9.69898C42.4359 9.69898 41.0857 9.25085 40.0569 8.35457C39.0603 7.42629 38.562 6.27393 38.562 4.89751C38.562 3.48907 39.0603 2.32072 40.0569 1.39243C41.0857 0.464143 42.4359 0 44.1076 0C45.7472 0 47.0653 0.464143 48.0619 1.39243C49.0906 2.32072 49.605 3.48907 49.605 4.89751C49.605 6.27393 49.0906 7.42629 48.0619 8.35457C47.0653 9.25085 45.7472 9.69898 44.1076 9.69898ZM48.7852 12.1958V39.132H39.3336V12.1958H48.7852Z" fill="#D34570"/>
<path d="M33.3808 16.9492C34.4417 15.4127 35.7276 14.1964 37.2386 13.3001C38.7496 12.4038 40.373 11.9557 42.1091 11.9557V21.9908H39.4568C37.3993 21.9908 35.8723 22.3909 34.8757 23.1911C33.8791 23.9914 33.3808 25.3838 33.3808 27.3684V39.132H23.9291V12.1958H33.3808V16.9492Z" fill="white"/>
<path d="M73.5663 15.9409C74.3057 14.6925 75.3505 13.7002 76.7007 12.964C78.051 12.2278 79.6423 11.8596 81.4748 11.8596C83.6287 11.8596 85.5737 12.4198 87.3097 13.5402C89.0779 14.6605 90.4603 16.261 91.4569 18.3416C92.4856 20.4223 93 22.855 93 25.6399C93 28.4247 92.4856 30.8735 91.4569 32.9861C90.4603 35.0668 89.0779 36.6673 87.3097 37.7876C85.5737 38.908 83.6287 39.4681 81.4748 39.4681C79.6423 39.4681 78.051 39.1 76.7007 38.3638C75.3827 37.6276 74.3378 36.6353 73.5663 35.3869V52H64.1146V12.1958H73.5663V15.9409ZM83.4037 25.6399C83.4037 23.8793 82.9215 22.5189 81.957 21.5586C81.0247 20.5663 79.8674 20.0702 78.485 20.0702C77.1026 20.0702 75.9292 20.5663 74.9647 21.5586C74.0324 22.5509 73.5663 23.9114 73.5663 25.6399C73.5663 27.4004 74.0324 28.7769 74.9647 29.7692C75.9292 30.7615 77.1026 31.2576 78.485 31.2576C79.8674 31.2576 81.0247 30.7615 81.957 29.7692C82.9215 28.7448 83.4037 27.3684 83.4037 25.6399Z" fill="#D34570"/>
<path d="M58.8959 39.4681C56.4526 39.4681 54.2665 39.068 52.3376 38.2678C50.4409 37.4355 48.9299 36.3152 47.8047 34.9067C46.7116 33.4663 46.1008 31.8498 45.9722 30.0572H55.1345C55.2631 30.9215 55.665 31.5937 56.3401 32.0739C57.0152 32.554 57.8511 32.7941 58.8477 32.7941C59.6192 32.7941 60.23 32.634 60.6801 32.3139C61.1302 31.9938 61.3552 31.5777 61.3552 31.0656C61.3552 30.3934 60.9855 29.8972 60.2461 29.5771C59.5067 29.257 58.2851 28.9049 56.5812 28.5208C54.6523 28.1367 53.0449 27.7045 51.7589 27.2244C50.473 26.7442 49.3478 25.96 48.3834 24.8717C47.4511 23.7833 46.9849 22.3109 46.9849 20.4543C46.9849 18.8538 47.4189 17.4134 48.2869 16.133C49.1549 14.8206 50.4248 13.7802 52.0965 13.012C53.8004 12.2438 55.8418 11.8596 58.2208 11.8596C61.7571 11.8596 64.5379 12.7239 66.5633 14.4524C68.5886 16.181 69.7621 18.4537 70.0835 21.2705H61.5481C61.3874 20.4063 61.0016 19.7501 60.3908 19.3019C59.8121 18.8218 59.0245 18.5817 58.0279 18.5817C57.2563 18.5817 56.6616 18.7258 56.2436 19.0138C55.8579 19.3019 55.665 19.7021 55.665 20.2142C55.665 20.8544 56.0347 21.3506 56.7741 21.7027C57.5135 22.0228 58.703 22.3589 60.3426 22.711C62.3036 23.1271 63.9271 23.5913 65.2131 24.1034C66.5311 24.6156 67.6724 25.4478 68.6369 26.6002C69.6335 27.7205 70.1318 29.257 70.1318 31.2096C70.1318 32.7781 69.6656 34.1865 68.7333 35.4349C67.8331 36.6833 66.5311 37.6756 64.8273 38.4118C63.1556 39.116 61.1784 39.4681 58.8959 39.4681Z" fill="white"/>
</svg>
