<svg width="139" height="77" viewBox="0 0 139 77" fill="none" xmlns="http://www.w3.org/2000/svg">
<path d="M0 32.7766C0 27.847 1.03307 23.4626 3.09921 19.6233C5.2134 15.7365 8.19249 12.7267 12.0365 10.5937C15.8805 8.41336 20.301 7.32318 25.2982 7.32318C31.6408 7.32318 36.9743 9.00585 41.2988 12.3712C45.6233 15.6891 48.4102 20.2158 49.6594 25.9511H34.4517C33.5387 24.0551 32.2654 22.6094 30.6317 21.614C29.0461 20.6187 27.1962 20.121 25.082 20.121C21.8146 20.121 19.1959 21.2822 17.2258 23.6048C15.3039 25.88 14.3429 28.9372 14.3429 32.7766C14.3429 36.6633 15.3039 39.7679 17.2258 42.0905C19.1959 44.3657 21.8146 45.5032 25.082 45.5032C27.1962 45.5032 29.0461 45.0055 30.6317 44.0102C32.2654 43.0148 33.5387 41.5691 34.4517 39.6731H49.6594C48.4102 45.4084 45.6233 49.9588 41.2988 53.3241C36.9743 56.642 31.6408 58.301 25.2982 58.301C20.301 58.301 15.8805 57.2345 12.0365 55.1016C8.19249 52.9212 5.2134 49.9114 3.09921 46.072C1.03307 42.1853 0 37.7535 0 32.7766Z" fill="#D34570"/>
<path d="M65.9243 14.362C63.4257 14.362 61.4076 13.6984 59.87 12.3712C58.3805 10.9966 57.6357 9.29024 57.6357 7.25208C57.6357 5.16651 58.3805 3.43644 59.87 2.06187C61.4076 0.687289 63.4257 0 65.9243 0C68.3748 0 70.3449 0.687289 71.8344 2.06187C73.372 3.43644 74.1408 5.16651 74.1408 7.25208C74.1408 9.29024 73.372 10.9966 71.8344 12.3712C70.3449 13.6984 68.3748 14.362 65.9243 14.362ZM72.9155 18.0591V57.9455H58.7889V18.0591H72.9155Z" fill="#D34570"/>
<path d="M49.8917 25.0979C51.4773 22.8227 53.3993 21.0215 55.6577 19.6944C57.916 18.3672 60.3425 17.7036 62.9372 17.7036V32.5633H58.9731C55.8979 32.5633 53.6155 33.1557 52.126 34.3407C50.6365 35.5257 49.8917 37.5876 49.8917 40.5263V57.9455H35.765V18.0591H49.8917V25.0979Z" fill="white"/>
<path d="M109.954 23.6048C111.059 21.7562 112.621 20.2869 114.639 19.1967C116.657 18.1065 119.035 17.5614 121.774 17.5614C124.993 17.5614 127.9 18.3909 130.495 20.0499C133.138 21.7088 135.204 24.0788 136.694 27.1597C138.231 30.2407 139 33.843 139 37.9668C139 42.0905 138.231 45.7165 136.694 48.8449C135.204 51.9258 133.138 54.2958 130.495 55.9548C127.9 57.6137 124.993 58.4432 121.774 58.4432C119.035 58.4432 116.657 57.8981 114.639 56.8079C112.669 55.7178 111.107 54.2484 109.954 52.3998V77H95.8273V18.0591H109.954V23.6048ZM124.657 37.9668C124.657 35.3598 123.936 33.3453 122.495 31.9234C121.101 30.454 119.372 29.7193 117.306 29.7193C115.239 29.7193 113.486 30.454 112.044 31.9234C110.651 33.3927 109.954 35.4072 109.954 37.9668C109.954 40.5737 110.651 42.6119 112.044 44.0813C113.486 45.5506 115.239 46.2853 117.306 46.2853C119.372 46.2853 121.101 45.5506 122.495 44.0813C123.936 42.5645 124.657 40.5263 124.657 37.9668Z" fill="#D34570"/>
<path d="M88.0272 58.4432C84.3754 58.4432 81.108 57.8507 78.225 56.6657C75.3901 55.4334 73.1318 53.7744 71.45 51.6888C69.8163 49.5559 68.9034 47.1622 68.7112 44.5078H82.4054C82.5976 45.7876 83.1982 46.783 84.2072 47.494C85.2163 48.205 86.4656 48.5605 87.9551 48.5605C89.1083 48.5605 90.0213 48.3235 90.694 47.8495C91.3666 47.3755 91.703 46.7593 91.703 46.0009C91.703 45.0055 91.1504 44.2709 90.0453 43.7969C88.9401 43.3229 87.1143 42.8015 84.5676 42.2327C81.6846 41.6639 79.2821 41.024 77.3601 40.313C75.4381 39.602 73.7564 38.4408 72.3149 36.8292C70.9215 35.2176 70.2247 33.0372 70.2247 30.2881C70.2247 27.9181 70.8734 25.7852 72.1708 23.8892C73.4681 21.9458 75.3661 20.4054 77.8647 19.2678C80.4113 18.1302 83.4625 17.5614 87.0181 17.5614C92.3036 17.5614 96.4599 18.8412 99.4871 21.4007C102.514 23.9603 104.268 27.3256 104.749 31.4968H91.9913C91.7511 30.217 91.1745 29.2453 90.2615 28.5817C89.3966 27.8707 88.2194 27.5152 86.7298 27.5152C85.5767 27.5152 84.6877 27.7285 84.0631 28.1551C83.4865 28.5817 83.1982 29.1742 83.1982 29.9326C83.1982 30.8806 83.7508 31.6153 84.8559 32.1367C85.961 32.6106 87.7389 33.1083 90.1894 33.6297C93.1205 34.2459 95.547 34.9332 97.469 35.6916C99.439 36.45 101.145 37.6824 102.586 39.3887C104.076 41.0477 104.821 43.3229 104.821 46.2142C104.821 48.5368 104.124 50.6223 102.73 52.4709C101.385 54.3195 99.439 55.7889 96.8924 56.879C94.3938 57.9218 91.4387 58.4432 88.0272 58.4432Z" fill="white"/>
</svg>
