<svg width="56" height="56" viewBox="0 0 56 56" fill="none" xmlns="http://www.w3.org/2000/svg">
<path d="M13.365 6C12.5619 6 11.8324 6.45842 11.4828 7.18119L5.20872 20.1475C5.03602 20.5045 4.96838 20.9033 5.0137 21.2973C5.05903 21.6913 5.21544 22.0642 5.4647 22.3727L26.7964 48.7236C26.9924 48.9661 27.2402 49.1616 27.5216 49.2959C27.803 49.4303 28.1108 49.5 28.4226 49.5C28.7344 49.5 29.0423 49.4303 29.3236 49.2959C29.605 49.1616 29.8528 48.9661 30.0488 48.7236L51.3805 22.3727C51.6298 22.0642 51.7862 21.6913 51.8315 21.2973C51.8769 20.9033 51.8092 20.5045 51.6365 20.1475L45.3625 7.18119C45.1914 6.82733 44.9242 6.52884 44.5913 6.31992C44.2583 6.11101 43.8733 6.00013 43.4803 6H13.365ZM10.6278 18.5481L14.6766 10.1827H20.8469L18.2319 18.5481H10.6278ZM11.1364 22.7307H17.9927L22.7911 37.1292L11.1364 22.7307ZM22.4012 22.7307H34.444L28.4226 40.7949L22.4012 22.7307ZM38.8526 22.7307H45.7088L34.0542 37.1292L38.8526 22.7307ZM46.2174 18.5481H38.6116L35.9966 10.1827H42.1669L46.2158 18.5481H46.2174ZM34.2315 18.5481H22.6137L25.2287 10.1827H31.6165L34.2315 18.5481Z" fill="#D34570"/>
</svg>
