<svg width="56" height="56" viewBox="0 0 56 56" fill="none" xmlns="http://www.w3.org/2000/svg">
<g clip-path="url(#clip0_17_525)">
<path d="M1.81973 45.3492L19.9092 45.4629C22.2517 45.4771 24.574 45.0297 26.7436 44.1462C28.9132 43.2628 30.8874 41.9606 32.5537 40.314L37.5531 35.377L20.7707 35.2716C18.5031 35.2573 17.3815 32.5062 18.9967 30.9111L22.3143 27.6324C23.5962 26.3665 24.3798 23.3114 22.3544 21.2578C20.3289 19.2068 17.2668 19.9519 15.9848 21.2178L1.8838 35.1529" stroke="#D34570" stroke-width="4.16667" stroke-linecap="round" stroke-linejoin="round"/>
<path d="M52.936 20.1912C49.5397 20.1699 42.7575 18.0889 42.8088 9.93597M52.9039 25.2868L52.8719 30.3825C52.8634 31.7339 52.3184 33.0266 51.3568 33.9762C50.3952 34.9258 49.0957 35.4545 47.7443 35.4461L42.6487 35.414L52.9039 25.2868ZM52.9039 25.2868C49.5077 25.2655 42.6999 27.2611 42.6487 35.414L52.9039 25.2868ZM52.9039 25.2868L52.936 20.1912L52.9039 25.2868ZM42.6487 35.414L27.3618 35.318L42.6487 35.414ZM27.5219 9.83991L22.4263 9.8079C21.0749 9.79941 19.7754 10.3281 18.8138 11.2777C17.8522 12.2273 17.3072 13.5201 17.2987 14.8715L17.2667 19.9671C20.6629 19.9884 27.4707 17.9929 27.5219 9.83991ZM27.5219 9.83991L42.8088 9.93597L27.5219 9.83991ZM52.936 20.1912L52.968 15.0956C52.9765 13.7442 52.4478 12.4447 51.4982 11.4831C50.5485 10.5215 49.2558 9.97647 47.9044 9.96798L42.8088 9.93597L52.936 20.1912Z" stroke="#D34570" stroke-width="4.16667" stroke-linecap="round" stroke-linejoin="round"/>
<path d="M35.1013 20.0792C33.6942 20.0703 32.5464 21.2039 32.5375 22.611C32.5287 24.0181 33.6622 25.1659 35.0693 25.1748C36.4764 25.1836 37.6243 24.0501 37.6331 22.643C37.642 21.2359 36.5085 20.088 35.1013 20.0792Z" stroke="#D34570" stroke-width="4.16667" stroke-linecap="round" stroke-linejoin="round"/>
</g>
<defs>
<clipPath id="clip0_17_525">
<rect width="56" height="56" fill="white"/>
</clipPath>
</defs>
</svg>
