<svg width="80" height="80" viewBox="0 0 80 80" fill="none" xmlns="http://www.w3.org/2000/svg">
<circle cx="40" cy="40" r="40" fill="white" fill-opacity="0.09"/>
<path d="M56.9024 52.246C55.8365 51.225 54.7991 50.1746 53.7913 49.0962C52.9447 48.2359 52.4349 47.61 52.4349 47.61L46.0624 44.5672C48.6136 41.6737 50.0217 37.9488 50.0224 34.0912C50.0224 25.3086 42.8761 18.16 34.0912 18.16C25.3063 18.16 18.16 25.3086 18.16 34.0912C18.16 42.8739 25.3063 50.0225 34.0912 50.0225C38.1036 50.0225 41.761 48.5204 44.5671 46.0647L47.61 52.4372C47.61 52.4372 48.2359 52.947 49.0961 53.7936C49.9769 54.6197 51.1353 55.7372 52.246 56.9047L55.3366 60.0728L56.7113 61.543L61.5384 56.7158L60.0682 55.3412C59.2056 54.4946 58.054 53.3703 56.9024 52.246ZM34.0912 45.4707C27.8166 45.4707 22.7118 40.3659 22.7118 34.0912C22.7118 27.8166 27.8166 22.7118 34.0912 22.7118C40.3658 22.7118 45.4706 27.8166 45.4706 34.0912C45.4706 40.3659 40.3658 45.4707 34.0912 45.4707Z" fill="white"/>
</svg>
