<svg width="12" height="12" viewBox="0 0 12 12" fill="none" xmlns="http://www.w3.org/2000/svg">
<path d="M8.78119 10.7798C8.70014 10.7797 8.6203 10.7601 8.54852 10.7224L5.99994 9.38257L3.45136 10.7224C3.36877 10.7658 3.27568 10.7853 3.18263 10.7785C3.08957 10.7718 3.00025 10.7392 2.92476 10.6843C2.84928 10.6295 2.79064 10.5546 2.75547 10.4682C2.72031 10.3818 2.71002 10.2873 2.72577 10.1953L3.21259 7.35742L1.15082 5.34792C1.08403 5.28278 1.03679 5.20025 1.01444 5.10967C0.992091 5.01909 0.995523 4.92406 1.02435 4.83533C1.05317 4.74659 1.10624 4.66769 1.17756 4.60754C1.24888 4.54738 1.3356 4.50838 1.42792 4.49492L4.27729 4.08086L5.55144 1.49903C5.59749 1.42105 5.66308 1.35643 5.74173 1.31154C5.82037 1.26665 5.90937 1.24304 5.99993 1.24304C6.09048 1.24304 6.17948 1.26665 6.25812 1.31154C6.33677 1.35643 6.40236 1.42105 6.44841 1.49903L7.72258 4.08081L10.5719 4.49488C10.6643 4.50833 10.751 4.54734 10.8223 4.60749C10.8936 4.66765 10.9467 4.74655 10.9755 4.83528C11.0043 4.92402 11.0078 5.01905 10.9854 5.10963C10.9631 5.20021 10.9158 5.28273 10.849 5.34788L8.78728 7.35738L9.27409 10.1953C9.2864 10.267 9.28288 10.3406 9.26378 10.4109C9.24468 10.4812 9.21046 10.5464 9.16351 10.6021C9.11657 10.6578 9.05803 10.7025 8.99198 10.7332C8.92594 10.7639 8.854 10.7798 8.78117 10.7798L8.78119 10.7798Z" fill="#FFC700"/>
<path d="M10.9756 4.8352C10.9467 4.74649 10.8937 4.6676 10.8224 4.60747C10.751 4.54733 10.6643 4.50833 10.572 4.49487L7.72265 4.08081L6.4485 1.49902C6.40507 1.41875 6.34005 1.35224 6.26079 1.307C6.18153 1.26176 6.0912 1.2396 6 1.24302V9.38257L8.54858 10.7224C8.63117 10.7658 8.72426 10.7853 8.81731 10.7785C8.91037 10.7718 8.99969 10.7392 9.07518 10.6843C9.15066 10.6295 9.2093 10.5546 9.24447 10.4682C9.27963 10.3818 9.28992 10.2873 9.27417 10.1953L8.78736 7.35742L10.8491 5.34792C10.9159 5.28275 10.9632 5.2002 10.9855 5.1096C11.0079 5.019 11.0044 4.92395 10.9756 4.8352Z" fill="#FFC700"/>
</svg>
