<svg width="12" height="12" viewBox="0 0 12 12" fill="none" xmlns="http://www.w3.org/2000/svg">
<path d="M8.78131 10.7798C8.70026 10.7797 8.62042 10.7601 8.54865 10.7224L6.00006 9.38257L3.45148 10.7224C3.36889 10.7658 3.27581 10.7853 3.18275 10.7785C3.08969 10.7718 3.00037 10.7392 2.92489 10.6843C2.8494 10.6295 2.79076 10.5546 2.7556 10.4682C2.72043 10.3818 2.71014 10.2873 2.72589 10.1953L3.21271 7.35742L1.15094 5.34792C1.08415 5.28278 1.03691 5.20025 1.01456 5.10967C0.992213 5.01909 0.995645 4.92406 1.02447 4.83533C1.0533 4.74659 1.10637 4.66769 1.17768 4.60754C1.249 4.54738 1.33572 4.50838 1.42804 4.49492L4.27741 4.08086L5.55156 1.49903C5.59761 1.42105 5.6632 1.35643 5.74185 1.31154C5.8205 1.26665 5.90949 1.24304 6.00005 1.24304C6.0906 1.24304 6.1796 1.26665 6.25825 1.31154C6.33689 1.35643 6.40248 1.42105 6.44853 1.49903L7.7227 4.08081L10.5721 4.49488C10.6644 4.50833 10.7511 4.54734 10.8224 4.60749C10.8937 4.66765 10.9468 4.74655 10.9756 4.83528C11.0045 4.92402 11.0079 5.01905 10.9855 5.10963C10.9632 5.20021 10.916 5.28273 10.8492 5.34788L8.7874 7.35738L9.27422 10.1953C9.28652 10.267 9.283 10.3406 9.2639 10.4109C9.2448 10.4812 9.21058 10.5464 9.16364 10.6021C9.11669 10.6578 9.05815 10.7025 8.99211 10.7332C8.92607 10.7639 8.85412 10.7798 8.7813 10.7798L8.78131 10.7798Z" fill="#D0D0D0"/>
<path d="M10.9756 4.8352C10.9467 4.74649 10.8937 4.6676 10.8224 4.60747C10.751 4.54733 10.6643 4.50833 10.572 4.49487L7.72265 4.08081L6.4485 1.49902C6.40507 1.41875 6.34005 1.35224 6.26079 1.307C6.18153 1.26176 6.0912 1.2396 6 1.24302V9.38257L8.54858 10.7224C8.63117 10.7658 8.72426 10.7853 8.81731 10.7785C8.91037 10.7718 8.99969 10.7392 9.07518 10.6843C9.15066 10.6295 9.2093 10.5546 9.24447 10.4682C9.27963 10.3818 9.28992 10.2873 9.27417 10.1953L8.78736 7.35742L10.8491 5.34792C10.9159 5.28275 10.9632 5.2002 10.9855 5.1096C11.0079 5.019 11.0044 4.92395 10.9756 4.8352Z" fill="#D0D0D0"/>
</svg>
